<svg xmlns="http://www.w3.org/2000/svg" viewBox="0 0 900 360" width="1800" height="720">
  <defs>
    <radialGradient id="moonglow" cx="50%" cy="50%" r="50%">
      <stop offset="0%" stop-color="#e8c070" stop-opacity=".9"/><stop offset="40%" stop-color="#c9962b" stop-opacity=".25"/><stop offset="100%" stop-color="#c9962b" stop-opacity="0"/>
    </radialGradient>
    <linearGradient id="sky" x1="0" y1="0" x2="0" y2="1">
      <stop offset="0%" stop-color="#0d0b07"/><stop offset="70%" stop-color="#1c150a"/><stop offset="100%" stop-color="#2a1e0c"/>
    </linearGradient>
    <linearGradient id="ground" x1="0" y1="0" x2="0" y2="1">
      <stop offset="0%" stop-color="#241a0b"/><stop offset="100%" stop-color="#0d0b07"/>
    </linearGradient>
  </defs>
  <rect width="900" height="360" fill="#0d0b07"/>
  <rect width="900" height="300" fill="url(#sky)"/>
  <circle cx="700" cy="80" r="90" fill="url(#moonglow)"/><circle cx="700" cy="80" r="34" fill="#e8c070" opacity=".95"/>
  <circle cx="690" cy="72" r="6" fill="#c9962b" opacity=".35"/><circle cx="712" cy="90" r="4" fill="#c9962b" opacity=".3"/>
  <g fill="#d4a855"><circle cx="80" cy="50" r="1.4" opacity=".8"/><circle cx="160" cy="90" r="1" opacity=".5"/><circle cx="250" cy="40" r="1.2" opacity=".7"/><circle cx="350" cy="70" r="1" opacity=".45"/><circle cx="450" cy="35" r="1.3" opacity=".6"/><circle cx="540" cy="95" r="1" opacity=".4"/><circle cx="850" cy="60" r="1.2" opacity=".6"/><circle cx="800" cy="150" r="1" opacity=".4"/><circle cx="120" cy="140" r="1" opacity=".4"/><circle cx="610" cy="40" r="1.1" opacity=".55"/></g>
  <path d="M0 250 Q120 215 260 240 Q400 262 520 238 Q660 212 780 240 Q850 254 900 246 L900 300 L0 300 Z" fill="#171107"/>
  <g fill="#120d05"><path d="M105 255 Q97 215 105 165 Q113 215 105 255 Z"/><path d="M138 258 Q131 226 138 186 Q145 226 138 258 Z"/><path d="M70 258 Q64 232 70 200 Q76 232 70 258 Z"/></g>
  <g>
    <rect x="330" y="170" width="240" height="92" fill="#120d05"/>
    <rect x="412" y="128" width="76" height="134" fill="#161006"/>
    <path d="M404 128 L450 100 L496 128 Z" fill="#120d05"/>
    <rect x="443" y="88" width="14" height="40" fill="#161006"/>
    <path d="M441 88 L450 76 L459 88 Z" fill="#120d05"/>
    <rect x="296" y="190" width="34" height="72" fill="#120d05"/><rect x="570" y="190" width="34" height="72" fill="#120d05"/>
    <g fill="#c9962b">
      <rect x="345" y="188" width="13" height="20" opacity=".85"/><rect x="372" y="188" width="13" height="20" opacity=".5"/>
      <rect x="515" y="188" width="13" height="20" opacity=".7"/><rect x="542" y="188" width="13" height="20" opacity=".9"/>
      <rect x="428" y="146" width="12" height="18" opacity=".8"/><rect x="460" y="146" width="12" height="18" opacity=".6"/>
      <path d="M438 262 L438 218 Q450 206 462 218 L462 262 Z" opacity=".9"/>
      <rect x="345" y="228" width="13" height="20" opacity=".4"/><rect x="542" y="228" width="13" height="20" opacity=".55"/>
    </g>
  </g>
  <g fill="#120d05"><path d="M790 258 Q781 212 790 158 Q799 212 790 258 Z"/><path d="M828 260 Q821 230 828 192 Q835 230 828 260 Z"/></g>
  <rect y="258" width="900" height="102" fill="url(#ground)"/>
  <path d="M0 262 Q450 250 900 262 L900 268 Q450 257 0 268 Z" fill="#2a1e0c" opacity=".6"/>
  <g fill="#0a0805">
    <g transform="translate(180,268)"><ellipse cx="0" cy="52" rx="13" ry="4" fill="#000" opacity=".5"/><path d="M-9 52 L-7 18 Q0 12 7 18 L9 52 Z"/><circle cx="0" cy="8" r="7"/><path d="M-11 4 L11 4 L8 1 Q0 -6 -8 1 Z"/></g>
    <g transform="translate(218,274)"><ellipse cx="0" cy="48" rx="12" ry="4" fill="#000" opacity=".5"/><path d="M-8 48 L-6 16 Q0 11 6 16 L8 48 Z"/><circle cx="0" cy="7" r="6.4"/><path d="M-10 3.5 L10 3.5 L7.5 .8 Q0 -5.5 -7.5 .8 Z"/><path d="M6 24 L18 20 L18 22 L7 27 Z" opacity=".9"/><ellipse cx="20" cy="19" rx="2.6" ry="1.6" fill="#c9962b" opacity=".8"/></g>
    <g transform="translate(152,276)"><ellipse cx="0" cy="46" rx="11" ry="3.6" fill="#000" opacity=".5"/><path d="M-8 46 L-6 15 Q0 10 6 15 L8 46 Z"/><circle cx="0" cy="6.5" r="6"/><path d="M-9.5 3 L9.5 3 L7 .4 Q0 -5 -7 .4 Z"/></g>
  </g>
  <path d="M238 290 Q244 282 240 274 Q236 266 242 258 Q248 250 244 242" fill="none" stroke="#9a7828" stroke-width="1.2" opacity=".45" stroke-linecap="round"/>
  <g transform="translate(660,296)" fill="#0a0805">
    <circle cx="0" cy="14" r="9"/><circle cx="44" cy="14" r="9"/>
    <circle cx="0" cy="14" r="4" fill="#1c150a"/><circle cx="44" cy="14" r="4" fill="#1c150a"/>
    <path d="M-4 6 Q8 -8 22 0 L36 2 Q46 4 46 12 L38 12 Q30 4 20 6 L8 10 Z"/>
    <path d="M20 2 L16 -12 L24 -13 L25 -10 L20 -10 Z"/>
  </g>
  <text x="450" y="338" text-anchor="middle" font-family="Cinzel,Georgia,serif" font-size="13" fill="#8a6820" letter-spacing="6">VILLA BRABANTE SENTIMENTO &#183; TERRA D'EERDE &#183; 1965</text>
</svg>