<svg xmlns="http://www.w3.org/2000/svg" viewBox="0 0 110 130" width="440" height="520">
  <path d="M55 6 L96 18 L96 62 Q96 100 55 124 Q14 100 14 62 L14 18 Z" fill="#121214" stroke="#4a4a52" stroke-width="2.5"/>
  <path d="M55 6 L96 18 L96 62 Q96 100 55 124 Q14 100 14 62 L14 18 Z" fill="none" stroke="#c9962b" stroke-width="1" transform="translate(55,65) scale(.92) translate(-55,-65)"/>
  <rect x="36" y="42" width="20" height="30" rx="2" fill="#1c1c20" stroke="#c9962b" stroke-width="1.6" transform="rotate(-9 46 57)"/>
  <rect x="52" y="40" width="20" height="30" rx="2" fill="#1c1c20" stroke="#c9962b" stroke-width="1.6" transform="rotate(8 62 55)"/>
  <text x="45" y="61" font-family="Georgia" font-size="13" fill="#c9962b" transform="rotate(-9 46 57)">&#9824;</text>
  <text x="58" y="59" font-family="Georgia" font-size="13" fill="#8e2030" transform="rotate(8 62 55)">&#9830;</text>
  <circle cx="55" cy="85" r="10" fill="#c9962b"/><circle cx="55" cy="85" r="7.4" fill="none" stroke="#121214" stroke-width="1"/>
  <text x="55" y="89.5" text-anchor="middle" font-family="Cinzel,Georgia,serif" font-size="11" fill="#121214" font-weight="bold">&#8356;</text>
  <text x="55" y="106" text-anchor="middle" font-family="Cinzel,Georgia,serif" font-size="9" fill="#c9962b" letter-spacing="2">NERO</text>
  <text x="55" y="118" text-anchor="middle" font-family="Cinzel,Georgia,serif" font-size="6" fill="#8a6820" letter-spacing="1.5">DE WOEKERAARS</text>
</svg>