<svg xmlns="http://www.w3.org/2000/svg" viewBox="0 0 110 130" width="440" height="520">
  <path d="M55 6 L96 18 L96 62 Q96 100 55 124 Q14 100 14 62 L14 18 Z" fill="#11150a" stroke="#5a6e35" stroke-width="2.5"/>
  <path d="M55 6 L96 18 L96 62 Q96 100 55 124 Q14 100 14 62 L14 18 Z" fill="none" stroke="#c9962b" stroke-width="1" transform="translate(55,65) scale(.92) translate(-55,-65)"/>
  <path d="M55 88 Q50 64 55 34" fill="none" stroke="#c9962b" stroke-width="2"/>
  <g fill="#5a6e35" stroke="#c9962b" stroke-width="1">
    <ellipse cx="45" cy="44" rx="8" ry="3.6" transform="rotate(-32 45 44)"/>
    <ellipse cx="65" cy="50" rx="8" ry="3.6" transform="rotate(28 65 50)"/>
    <ellipse cx="44" cy="60" rx="8" ry="3.6" transform="rotate(-26 44 60)"/>
    <ellipse cx="66" cy="68" rx="8" ry="3.6" transform="rotate(24 66 68)"/>
    <ellipse cx="46" cy="76" rx="8" ry="3.6" transform="rotate(-22 46 76)"/>
  </g>
  <circle cx="58" cy="38" r="3.4" fill="#c9962b"/><circle cx="51" cy="68" r="3" fill="#c9962b" opacity=".8"/>
  <text x="55" y="106" text-anchor="middle" font-family="Cinzel,Georgia,serif" font-size="9" fill="#c9962b" letter-spacing="2">VERDE</text>
  <text x="55" y="118" text-anchor="middle" font-family="Cinzel,Georgia,serif" font-size="6" fill="#8a6820" letter-spacing="1.5">DE PLATTELANDSMAFFIA</text>
</svg>