<svg xmlns="http://www.w3.org/2000/svg" viewBox="0 0 120 120" width="600" height="600">
  <rect width="120" height="120" fill="#0d0b07"/>
  <circle cx="60" cy="60" r="55" fill="none" stroke="#8a6820" stroke-width="1.5" stroke-dasharray="4,3"/>
  <circle cx="60" cy="60" r="48" fill="none" stroke="#5a4410" stroke-width=".8"/>
  <circle cx="60" cy="60" r="42" fill="none" stroke="#8a6820" stroke-width=".5"/>
  <text x="60" y="42" text-anchor="middle" font-family="Cinzel,Georgia,serif" font-size="8" fill="#c9962b" letter-spacing="2">LA FAMIGLIA</text>
  <g transform="translate(60,57) scale(.5)">
    <ellipse cx="0" cy="-2" rx="16" ry="5" fill="none" stroke="#c9962b" stroke-width="2"/>
    <path d="M-9 -3 Q-9 -12 0 -12 Q9 -12 9 -3" fill="#0d0b07" stroke="#c9962b" stroke-width="2"/>
  </g>
  <text x="60" y="78" text-anchor="middle" font-family="Cinzel,Georgia,serif" font-size="6.5" fill="#8a6820" letter-spacing="1.5">OMERT&#192;</text>
  <text x="60" y="88" text-anchor="middle" font-family="Cinzel,Georgia,serif" font-size="6.5" fill="#8a6820" letter-spacing="1.5">VENDETTA</text>
  <text x="60" y="98" text-anchor="middle" font-family="Cinzel,Georgia,serif" font-size="6.5" fill="#8a6820" letter-spacing="1.5">RISPETTO</text>
  <g stroke="#7a5c1a" stroke-width=".8">
    <line x1="60" y1="5" x2="60" y2="10"/><line x1="60" y1="110" x2="60" y2="115"/>
    <line x1="5" y1="60" x2="10" y2="60"/><line x1="110" y1="60" x2="115" y2="60"/>
    <line x1="20.1" y1="20.1" x2="23.6" y2="23.6"/><line x1="96.4" y1="96.4" x2="99.9" y2="99.9"/>
    <line x1="99.9" y1="20.1" x2="96.4" y2="23.6"/><line x1="23.6" y1="96.4" x2="20.1" y2="99.9"/>
  </g>
</svg>